<svg id="Layer_1" enable-background="new 0 0 256 256" height="512" viewBox="0 0 256 256" width="512" xmlns="http://www.w3.org/2000/svg"><g><path d="m144.491 72.05h-66.32l-25.124 167.36h149.906l-25.124-167.36h-20.82z" fill="#f16c7a"/><path d="m202.953 240.91h-149.906c-.437 0-.852-.191-1.137-.521-.285-.331-.412-.77-.347-1.202l25.124-167.359c.11-.734.741-1.277 1.483-1.277h66.321c.829 0 1.5.671 1.5 1.5s-.671 1.5-1.5 1.5h-65.029l-24.672 164.359h146.42l-24.672-164.36h-19.529c-.829 0-1.5-.671-1.5-1.5s.671-1.5 1.5-1.5h20.82c.742 0 1.373.543 1.483 1.277l25.124 167.359c.065.432-.062.871-.347 1.202s-.7.522-1.136.522z" fill="#3a312a"/><path d="m114.532 72.05v78.704h13.117v-35.38c.001-15.419-4.563-30.494-13.117-43.324z" fill="#8bc0d7"/><path d="m127.65 152.254h-13.117c-.829 0-1.5-.671-1.5-1.5v-78.704c0-.661.433-1.244 1.065-1.436.633-.191 1.316.054 1.683.604 8.746 13.12 13.369 28.389 13.369 44.156v35.38c0 .829-.672 1.5-1.5 1.5zm-11.617-3h10.117v-33.88c0-13.426-3.483-26.477-10.117-38.052z" fill="#3a312a"/><path d="m128 109.55c-39.563 0-71.75-24.897-71.75-55.5 0-.829.671-1.5 1.5-1.5s1.5.671 1.5 1.5c0 28.949 30.841 52.5 68.75 52.5s68.75-23.551 68.75-52.5c0-.829.671-1.5 1.5-1.5s1.5.671 1.5 1.5c0 30.603-32.187 55.5-71.75 55.5z" fill="#3a312a"/><path d="m115.146 16.59s2.411 8.954 9.352 9.369c0 0-9.266 3.201-9.422 10.045 0 0-1.824-9.6-9.142-9.944-.001.001 8.523-1.29 9.212-9.47z" fill="#d6df58"/><path d="m115.074 37.505c-.713 0-1.337-.507-1.472-1.22-.016-.082-1.704-8.442-7.739-8.726-.771-.037-1.388-.651-1.428-1.421-.04-.771.511-1.445 1.274-1.561.296-.047 7.364-1.243 7.942-8.114.061-.726.635-1.303 1.36-1.368.728-.067 1.392.399 1.582 1.102.021.079 2.228 7.919 7.993 8.264.715.043 1.299.584 1.396 1.293.098.709-.319 1.388-.996 1.622-.081.028-8.282 2.953-8.412 8.662-.018.767-.611 1.397-1.376 1.461-.041.004-.082.006-.124.006zm-4.518-11.527c2.107 1.333 3.523 3.394 4.447 5.28 1.376-2.232 3.515-3.872 5.364-4.973-2.287-1.269-3.884-3.35-4.941-5.223-1.173 2.286-3.015 3.875-4.87 4.916z" fill="#3a312a"/><path d="m136.845 26.267s3.408 12.659 13.222 13.246c0 0-13.1 4.525-13.321 14.202 0 0-2.578-13.572-12.925-14.059-.001.001 12.05-1.825 13.024-13.389z" fill="#d6df58"/><path d="m136.744 55.215c-.713 0-1.335-.506-1.472-1.217-.024-.124-2.494-12.417-11.522-12.842-.771-.037-1.388-.651-1.428-1.421-.04-.771.511-1.445 1.273-1.561.441-.069 10.894-1.817 11.754-12.033.061-.725.634-1.301 1.359-1.367.719-.068 1.393.399 1.583 1.102.032.116 3.259 11.626 11.864 12.141.714.043 1.297.584 1.395 1.292s-.319 1.388-.994 1.623c-.121.042-12.118 4.31-12.313 12.819-.018.767-.61 1.396-1.375 1.459-.04.003-.082.005-.124.005zm-7.741-15.73c3.878 1.969 6.23 5.746 7.586 8.876 2.027-4.021 5.942-6.787 8.949-8.427-4.134-1.842-6.783-5.652-8.334-8.723-1.792 4.361-5.27 6.87-8.201 8.274z" fill="#3a312a"/><path d="m115.146 43.248s2.411 8.954 9.352 9.369c0 0-9.266 3.201-9.422 10.045 0 0-1.824-9.6-9.142-9.944-.001 0 8.523-1.291 9.212-9.47z" fill="#d6df58"/><path d="m115.074 64.163c-.713 0-1.337-.507-1.472-1.22-.016-.082-1.704-8.442-7.739-8.726-.771-.037-1.388-.651-1.428-1.421-.04-.771.511-1.445 1.274-1.56.296-.047 7.364-1.243 7.942-8.114.061-.726.635-1.303 1.36-1.368.728-.066 1.392.4 1.582 1.102.021.079 2.228 7.92 7.994 8.265.714.043 1.299.585 1.396 1.294.098.709-.32 1.388-.996 1.622-.081.028-8.282 2.952-8.412 8.662-.018.767-.611 1.397-1.376 1.461-.042.001-.083.003-.125.003zm-4.518-11.528c2.107 1.333 3.523 3.395 4.447 5.28 1.376-2.233 3.515-3.872 5.365-4.972-2.287-1.27-3.884-3.35-4.941-5.224-1.174 2.286-3.016 3.875-4.871 4.916z" fill="#3a312a"/><path d="m27.96 114.786v107.164h30.12v-159.889c-4.2 3.14-9.42 4.99-15.06 4.99-5.65 0-10.86-1.85-15.06-4.98v39.745z" fill="#fce8cb"/><path d="m58.08 223.45h-30.12c-.829 0-1.5-.671-1.5-1.5v-107.164c0-.829.671-1.5 1.5-1.5s1.5.671 1.5 1.5v105.664h27.12v-155.588c-4.087 2.42-8.722 3.688-13.56 3.688-4.835 0-9.47-1.266-13.56-3.682v36.947c0 .829-.671 1.5-1.5 1.5s-1.5-.671-1.5-1.5v-39.745c0-.567.32-1.086.827-1.341.508-.253 1.115-.201 1.569.138 4.111 3.063 9.009 4.683 14.164 4.683 5.159 0 10.056-1.622 14.162-4.691.454-.34 1.062-.394 1.57-.14s.828.773.828 1.341v159.89c0 .829-.671 1.5-1.5 1.5z" fill="#3a312a"/><path d="m23.531 221.954h39.765c4.232 0 7.663 3.431 7.663 7.663v9.792h-55.091v-9.792c0-4.232 3.431-7.663 7.663-7.663z" fill="#fce8cb"/><path d="m70.96 240.91h-55.092c-.829 0-1.5-.671-1.5-1.5v-9.792c0-5.053 4.111-9.163 9.164-9.163h39.765c5.053 0 9.164 4.11 9.164 9.163v9.792c-.001.828-.672 1.5-1.501 1.5zm-53.592-3h52.092v-8.292c0-3.399-2.765-6.163-6.164-6.163h-39.765c-3.399 0-6.164 2.765-6.164 6.163v8.292z" fill="#3a312a"/><ellipse cx="43.019" cy="41.82" fill="#fce8cb" rx="25.23" ry="25.23" transform="matrix(.974 -.229 .229 .974 -8.418 10.937)"/><path d="m43.019 68.551c-14.739 0-26.73-11.991-26.73-26.73s11.991-26.73 26.73-26.73 26.73 11.991 26.73 26.73-11.991 26.73-26.73 26.73zm0-50.461c-13.085 0-23.73 10.645-23.73 23.73s10.645 23.73 23.73 23.73 23.73-10.645 23.73-23.73-10.645-23.73-23.73-23.73z" fill="#3a312a"/><path d="m227.73 62.061v159.89h-30.12v-159.89c4.2 3.14 9.41 4.99 15.06 4.99 5.65-.001 10.86-1.851 15.06-4.99z" fill="#fce8cb"/><path d="m227.73 223.45h-30.12c-.829 0-1.5-.671-1.5-1.5v-159.889c0-.568.32-1.087.828-1.341.507-.254 1.116-.199 1.57.14 4.106 3.069 9.003 4.691 14.162 4.691s10.056-1.622 14.162-4.691c.454-.34 1.062-.394 1.57-.14s.828.773.828 1.341v159.89c0 .828-.671 1.499-1.5 1.499zm-28.62-3h27.12v-155.588c-4.087 2.42-8.722 3.688-13.56 3.688s-9.473-1.268-13.56-3.688z" fill="#3a312a"/><ellipse cx="212.67" cy="41.82" fill="#fce8cb" rx="25.23" ry="25.23" transform="matrix(.131 -.991 .991 .131 143.291 247.159)"/><path d="m212.67 68.551c-14.739 0-26.73-11.991-26.73-26.73s11.991-26.73 26.73-26.73 26.73 11.991 26.73 26.73-11.991 26.73-26.73 26.73zm0-50.461c-13.085 0-23.73 10.645-23.73 23.73s10.645 23.73 23.73 23.73 23.73-10.645 23.73-23.73-10.645-23.73-23.73-23.73z" fill="#3a312a"/><path d="m192.703 221.954h39.766c4.232 0 7.663 3.431 7.663 7.663v9.792h-55.092v-9.792c0-4.232 3.431-7.663 7.663-7.663z" fill="#fce8cb"/><path d="m240.132 240.91h-55.092c-.829 0-1.5-.671-1.5-1.5v-9.792c0-5.053 4.111-9.163 9.164-9.163h39.765c5.053 0 9.163 4.11 9.163 9.163v9.792c0 .828-.671 1.5-1.5 1.5zm-53.592-3h52.092v-8.292c0-3.399-2.765-6.163-6.163-6.163h-39.765c-3.398 0-6.164 2.765-6.164 6.163z" fill="#3a312a"/><path d="m118.468 164.687c-2.027-.942-4.285-1.471-6.668-1.471-8.754 0-15.85 7.096-15.85 15.85s7.096 15.85 15.85 15.85 15.85-7.096 15.85-15.85c0-.183 0-28.311 0-28.311h-9.182zm-6.668 21.047c-3.683 0-6.668-2.985-6.668-6.668s2.985-6.668 6.668-6.668 6.668 2.985 6.668 6.668-2.986 6.668-6.668 6.668z" fill="#8bc0d7"/><path d="m111.8 196.416c-9.567 0-17.35-7.783-17.35-17.35s7.783-17.35 17.35-17.35c1.772 0 3.503.263 5.168.785v-11.746c0-.829.671-1.5 1.5-1.5h9.182c.829 0 1.5.671 1.5 1.5v28.312c0 9.566-7.783 17.349-17.35 17.349zm0-31.7c-7.913 0-14.35 6.438-14.35 14.35s6.438 14.35 14.35 14.35 14.35-6.438 14.35-14.35v-26.812h-6.182v12.432c0 .512-.261.989-.693 1.265s-.974.311-1.439.096c-1.902-.883-3.933-1.331-6.036-1.331zm0 22.518c-4.504 0-8.168-3.664-8.168-8.168s3.664-8.168 8.168-8.168 8.168 3.664 8.168 8.168-3.664 8.168-8.168 8.168zm0-13.336c-2.85 0-5.168 2.318-5.168 5.168s2.318 5.168 5.168 5.168 5.168-2.318 5.168-5.168-2.319-5.168-5.168-5.168z" fill="#3a312a"/><path d="m147.669 148.358c-1.685 1.685-2.907 3.656-3.675 5.755l-9.852-9.852-6.493 6.493 19.633 19.633s.257.257.387.387c6.19 6.19 16.225 6.19 22.415 0s6.19-16.226 0-22.415c-6.189-6.191-16.225-6.191-22.415-.001zm15.923 15.923c-2.604 2.604-6.826 2.604-9.43 0s-2.604-6.826 0-9.43 6.826-2.604 9.43 0 2.604 6.826 0 9.43z" fill="#8bc0d7"/><path d="m158.877 176.908c-4.443 0-8.886-1.691-12.269-5.074l-20.019-20.019c-.586-.585-.586-1.536 0-2.121l6.493-6.493c.586-.586 1.535-.586 2.121 0l8.306 8.306c.809-1.546 1.846-2.956 3.1-4.209 6.764-6.764 17.771-6.765 24.537 0 3.277 3.277 5.082 7.633 5.082 12.268 0 4.634-1.805 8.991-5.082 12.268-3.383 3.382-7.826 5.074-12.269 5.074zm-29.106-26.154 18.958 18.959c5.595 5.594 14.698 5.595 20.294 0 2.71-2.711 4.203-6.314 4.203-10.147s-1.493-7.437-4.203-10.147c-5.595-5.594-14.698-5.595-20.294 0-1.487 1.488-2.607 3.24-3.327 5.21-.176.481-.585.839-1.085.95-.498.109-1.022-.041-1.384-.404l-8.791-8.791zm29.105 16.98c-2.182 0-4.233-.85-5.775-2.393-3.185-3.185-3.185-8.366 0-11.551 1.542-1.543 3.594-2.393 5.775-2.393 2.182 0 4.233.85 5.776 2.393 1.543 1.542 2.393 3.594 2.393 5.775 0 2.182-.85 4.233-2.393 5.775-1.542 1.544-3.593 2.394-5.776 2.394zm.001-13.334c-1.324 0-2.647.504-3.655 1.511-2.015 2.015-2.015 5.293 0 7.309 2.016 2.015 5.293 2.016 7.309 0 2.015-2.015 2.015-5.293 0-7.309-1.008-1.007-2.331-1.511-3.654-1.511z" fill="#3a312a"/><path d="m81.273 85.827 55.652 55.652-9.275 9.275-25.018-25.018c-10.903-10.902-18.335-24.789-21.359-39.909z" fill="#8bc0d7"/><path d="m127.65 152.254c-.384 0-.768-.146-1.061-.439l-25.018-25.017c-11.15-11.149-18.678-25.215-21.77-40.676-.13-.648.18-1.305.763-1.616.582-.313 1.301-.207 1.769.262l55.652 55.652c.281.281.439.663.439 1.061s-.158.779-.439 1.061l-9.275 9.275c-.293.291-.676.437-1.06.437zm-43.71-61.639c3.494 12.875 10.259 24.566 19.753 34.061l23.957 23.957 7.154-7.154z" fill="#3a312a"/><circle cx="121.098" cy="134.945" fill="#3a312a" r="2.822"/><g fill="#decaad"><path d="m236.4 41.82c0 13.09-10.64 23.73-23.73 23.73-2.81 0-5.5-.49-8-1.39 9.16-3.28 15.73-12.05 15.73-22.34 0-10.28-6.57-19.06-15.73-22.34 2.5-.9 5.19-1.39 8-1.39 13.09 0 23.73 10.65 23.73 23.73z"/><path d="m238.63 229.621v8.29h-16v-8.29c0-3.4-2.76-6.17-6.16-6.17h16c3.4-.001 6.16 2.769 6.16 6.17z"/><path d="m226.23 64.86v155.59h-16v-152.01c.81.07 1.62.11 2.44.11 4.84 0 9.47-1.27 13.56-3.69z"/></g></g></svg>