<?xml version="1.0" encoding="iso-8859-1"?>
<!-- Generator: Adobe Illustrator 19.0.0, SVG Export Plug-In . SVG Version: 6.00 Build 0)  -->
<svg version="1.1" id="Capa_1" xmlns="http://www.w3.org/2000/svg" xmlns:xlink="http://www.w3.org/1999/xlink" x="0px" y="0px"
	 viewBox="0 0 480 480" style="enable-background:new 0 0 480 480;" xml:space="preserve">
<polygon style="fill:#B02700;" points="440,160 344,8 104,8 200,160 "/>
<path style="fill:#F29316;" d="M56,232v144h96V232H56z M112,296h16H112z"/>
<g>
	<polygon style="fill:#FCE3C3;" points="104,8 8,160 200,160 	"/>
	<path style="fill:#FCE3C3;" d="M8,160v184c0,17.672,14.328,32,32,32h16V232h96v144h48V160H8z"/>
	<path style="fill:#FCE3C3;" d="M472,384v-40h-40C432,366.112,449.888,384,472,384z"/>
	<rect x="232" y="280" style="fill:#FCE3C3;" width="240" height="32"/>
	<polygon style="fill:#FCE3C3;" points="232,248 232,280 472,280 472,248 440,248 	"/>
</g>
<path style="fill:#2C83A3;" d="M432,344H272c0,22.112-17.888,40-40,40v48c22.112,0,40,17.888,40,40h160c0-22.112,17.888-40,40-40
	v-48C449.888,384,432,366.112,432,344z M280,408h16H280z M352,440c-17.672,0-32-14.328-32-32s14.328-32,32-32s32,14.328,32,32
	S369.672,440,352,440z M408,408h16H408z"/>
<g>
	<path style="fill:#FCE3C3;" d="M232,432v40h40C272,449.888,254.112,432,232,432z"/>
	<path style="fill:#FCE3C3;" d="M272,344h-40v32v8C254.112,384,272,366.112,272,344z"/>
	<circle style="fill:#FCE3C3;" cx="352" cy="408" r="32"/>
	<path style="fill:#FCE3C3;" d="M432,472h40v-40C449.888,432,432,449.888,432,472z"/>
	<polygon style="fill:#FCE3C3;" points="232,344 272,344 432,344 472,344 472,312 232,312 	"/>
	<polygon style="fill:#FCE3C3;" points="232,312 232,280 232,248 440,248 440,160 200,160 200,376 232,376 232,344 	"/>
</g>
<g>
	<path style="fill:#3A0D03;" d="M352,368c-22.056,0-40,17.944-40,40s17.944,40,40,40s40-17.944,40-40S374.056,368,352,368z M352,432
		c-13.232,0-24-10.768-24-24s10.768-24,24-24s24,10.768,24,24S365.232,432,352,432z"/>
	<rect x="408" y="400" style="fill:#3A0D03;" width="16" height="16"/>
	<rect x="280" y="400" style="fill:#3A0D03;" width="16" height="16"/>
	<path style="fill:#3A0D03;" d="M472,240h-24v-80c0-0.032-0.016-0.056-0.016-0.088c-0.008-0.928-0.216-1.84-0.552-2.72
		c-0.088-0.232-0.192-0.44-0.296-0.656c-0.128-0.264-0.208-0.552-0.368-0.8l-96-152C349.296,1.408,346.744,0,344,0H104
		c-2.664,0-5.096,1.376-6.576,3.56c-0.048,0.072-0.144,0.096-0.192,0.168l-96,152c-0.16,0.256-0.24,0.536-0.368,0.8
		c-0.104,0.224-0.216,0.424-0.296,0.656c-0.336,0.88-0.536,1.792-0.552,2.72C0.016,159.944,0,159.968,0,160v184
		c0,22.056,17.944,40,40,40h16h96h48h24v88c0,4.424,3.584,8,8,8h240c4.416,0,8-3.576,8-8V344v-32v-32v-32
		C480,243.576,476.416,240,472,240z M464,374.864c-11.192-2.912-19.952-11.672-22.864-22.864H464V374.864z M424.72,464H279.28
		c-3.384-20.056-19.224-35.888-39.28-39.28v-33.44c20.056-3.384,35.888-19.224,39.28-39.28h145.44
		c3.384,20.056,19.224,35.888,39.28,39.28v33.448C443.944,428.112,428.112,443.944,424.72,464z M464,304H240v-16h224V304z M240,352
		h22.864c-2.912,11.192-11.672,19.952-22.864,22.864V352z M240,336v-16h224v16H240z M464,272H240v-16h200h24V272z M425.488,152
		H204.416L118.52,16h221.072L425.488,152z M104,22.984L185.48,152H22.512L104,22.984z M16,344V168h176v200h-32V232
		c0-4.424-3.584-8-8-8H56c-4.416,0-8,3.576-8,8v136h-8C26.768,368,16,357.232,16,344z M64,368V240h80v128H64z M208,368V168h224v72
		H232c-4.416,0-8,3.576-8,8v32v32v32v24H208z M240,441.136c11.192,2.912,19.952,11.672,22.864,22.864H240V441.136z M441.136,464
		c2.912-11.192,11.672-19.952,22.864-22.864V464H441.136z"/>
	<rect x="96" y="400" style="fill:#3A0D03;" width="16" height="16"/>
	<rect x="96" y="432" style="fill:#3A0D03;" width="16" height="16"/>
	<rect x="128" y="432" style="fill:#3A0D03;" width="16" height="16"/>
	<rect x="160" y="432" style="fill:#3A0D03;" width="16" height="16"/>
	<rect x="192" y="432" style="fill:#3A0D03;" width="16" height="16"/>
	<rect x="112" y="288" style="fill:#3A0D03;" width="16" height="16"/>
</g>
<g>
</g>
<g>
</g>
<g>
</g>
<g>
</g>
<g>
</g>
<g>
</g>
<g>
</g>
<g>
</g>
<g>
</g>
<g>
</g>
<g>
</g>
<g>
</g>
<g>
</g>
<g>
</g>
<g>
</g>
</svg>
